<svg width="46" height="45" viewBox="0 0 46 45" fill="none" xmlns="http://www.w3.org/2000/svg">
<g clip-path="url(#clip0_467_2825)">
<rect x="1.91667" y="1.27507" width="42.1667" height="42.1667" rx="8.58333" fill="#2d2621"/>
<rect x="1.91667" y="1.27507" width="42.1667" height="42.1667" rx="8.58333" stroke="url(#paint0_linear_467_2825)" stroke-width="1.83333"/>
<path fill-rule="evenodd" clip-rule="evenodd" d="M26.3722 9.68207L26.512 8.63941L24.4267 8.35986L24.2869 9.40253L23.0155 18.8873L17.9074 9.65039L17.3983 8.72979L15.5571 9.74798L16.0662 10.6686L22.0695 21.5243L10.1594 20.9077L9.10877 20.8533L9 22.9545L10.0506 23.0089L19.9228 23.52L12.1915 28.1152L11.2872 28.6527L12.3622 30.4613L13.2665 29.9238L20.211 25.7962L14.9751 32.5211L14.3288 33.3512L15.989 34.6437L16.6352 33.8137L23.3756 25.1565L28.8464 33.8237L29.4079 34.7133L31.1871 33.5903L30.6256 32.7007L26.834 26.6938L32.7268 31.6971L33.5287 32.378L34.8905 30.7742L34.0886 30.0933L27.7728 24.7308L35.5755 26.0387L36.613 26.2126L36.9608 24.1375L35.9233 23.9636L25.6287 22.2381L33.0088 13.0007L33.6655 12.1788L32.0217 10.8655L31.365 11.6874L25.0426 19.601L26.3722 9.68207Z" fill="white"/>
<path opacity="0.4" fill-rule="evenodd" clip-rule="evenodd" d="M11.9556 13.6826L12.8205 14.2815L23.5106 21.684L23.5373 21.7025L24.134 21.5746L35.5317 19.1317L36.5603 18.9112L37.0013 20.9685L35.9726 21.189L25.0434 23.5314L24.9186 24.3555L23.2588 35.3166L23.1013 36.3567L21.021 36.0417L21.1785 35.0016L22.8383 24.0405L22.8743 23.8026L22.3128 23.4137L11.6227 16.0113L10.7578 15.4124L11.9556 13.6826Z" fill="white"/>
</g>
<rect x="0.93125" y="0.289648" width="44.1375" height="44.1375" rx="9.56875" stroke="black" stroke-opacity="0.6" stroke-width="0.1375"/>
<defs>
<linearGradient id="paint0_linear_467_2825" x1="23" y1="0.358398" x2="23" y2="44.3584" gradientUnits="userSpaceOnUse">
<stop stop-color="#2E3032"/>
<stop offset="1" stop-color="#101214"/>
</linearGradient>
<clipPath id="clip0_467_2825">
<rect x="1" y="0.358398" width="44" height="44" rx="9.5" fill="white"/>
</clipPath>
</defs>
</svg>
