<svg xmlns="http://www.w3.org/2000/svg" xmlns:xlink="http://www.w3.org/1999/xlink" width="500" zoomAndPan="magnify" viewBox="0 0 375 374.999991" height="500" preserveAspectRatio="xMidYMid meet" version="1.0"><defs><filter x="0%" y="0%" width="100%" height="100%" id="5c670269fe"><feColorMatrix values="0 0 0 0 1 0 0 0 0 1 0 0 0 0 1 0 0 0 1 0" color-interpolation-filters="sRGB"/></filter><mask id="b426a22088"><g filter="url(#5c670269fe)"><rect x="-37.5" width="450" fill="#000000" y="-37.499999" height="449.999989" fill-opacity="0.4"/></g></mask><clipPath id="e3bf3f01df"><rect x="0" width="260" y="0" height="225"/></clipPath></defs><path fill="#d97757" d="M 219.558594 65.773438 L 220.886719 55.859375 L 201.058594 53.199219 L 199.726562 63.117188 L 187.636719 153.3125 L 139.058594 65.472656 L 134.21875 56.71875 L 116.707031 66.398438 L 121.550781 75.15625 L 178.640625 178.390625 L 65.382812 172.527344 L 55.394531 172.011719 L 54.359375 191.992188 L 64.347656 192.511719 L 158.230469 197.371094 L 84.707031 241.070312 L 76.109375 246.179688 L 86.332031 263.378906 L 94.929688 258.269531 L 160.960938 219.023438 L 111.171875 282.96875 L 105.027344 290.863281 L 120.8125 303.15625 L 126.960938 295.261719 L 191.0625 212.933594 L 243.089844 295.355469 L 248.425781 303.816406 L 265.347656 293.136719 L 260.007812 284.675781 L 223.945312 227.542969 L 279.992188 275.132812 L 287.621094 281.609375 L 300.570312 266.355469 L 292.945312 259.878906 L 232.882812 208.886719 L 307.078125 221.320312 L 316.945312 222.976562 L 320.253906 203.242188 L 310.386719 201.589844 L 212.492188 185.179688 L 282.675781 97.332031 L 288.921875 89.515625 L 273.289062 77.027344 L 267.046875 84.84375 L 206.914062 160.109375 Z M 219.558594 65.773438 " fill-opacity="1" fill-rule="evenodd"/><g mask="url(#b426a22088)"><g transform="matrix(1, 0, 0, 1, 70, 100)"><g clip-path="url(#e3bf3f01df)"><path fill="#d97757" d="M 12.457031 3.816406 L 20.679688 9.511719 L 122.34375 79.910156 L 122.597656 80.085938 L 128.269531 78.867188 L 236.660156 55.636719 L 246.445312 53.539062 L 250.636719 73.105469 L 240.855469 75.203125 L 136.914062 97.480469 L 135.726562 105.316406 L 119.945312 209.554688 L 118.445312 219.445312 L 98.664062 216.449219 L 100.160156 206.558594 L 115.945312 102.320312 L 116.289062 100.054688 L 110.953125 96.359375 L 9.289062 25.960938 L 1.066406 20.265625 Z M 12.457031 3.816406 " fill-opacity="1" fill-rule="evenodd"/></g></g></g></svg>